<svg width="528" height="528" viewBox="0 0 528 528" fill="none" xmlns="http://www.w3.org/2000/svg">
<path d="M241.2 499.104L241.408 495.454L252.843 496.108L252.634 499.758L241.2 499.104ZM250.031 518.734L251.33 496.021L256.01 496.289L254.711 519.002L250.031 518.734Z" fill="black"/>
<path d="M212.093 502.91L212.277 501.848C212.572 500.144 213.067 498.655 213.764 497.38C214.46 496.105 215.312 495.063 216.318 494.254C217.324 493.455 218.455 492.906 219.712 492.605C220.959 492.303 222.29 492.275 223.707 492.52C225.113 492.763 226.358 493.238 227.441 493.943C228.513 494.647 229.394 495.544 230.083 496.636C230.769 497.738 231.232 499.007 231.469 500.444C231.697 501.879 231.663 503.448 231.368 505.152L231.184 506.214C230.888 507.928 230.392 509.418 229.697 510.682C229.001 511.957 228.149 512.999 227.143 513.808C226.125 514.615 224.993 515.17 223.747 515.472C222.489 515.773 221.158 515.801 219.752 515.558C218.335 515.313 217.091 514.838 216.018 514.135C214.935 513.429 214.055 512.526 213.378 511.426C212.692 510.324 212.235 509.056 212.007 507.621C211.768 506.195 211.796 504.624 212.093 502.91ZM216.942 502.655L216.753 503.748C216.547 504.939 216.473 506.005 216.532 506.945C216.592 507.886 216.778 508.7 217.093 509.389C217.407 510.078 217.84 510.628 218.393 511.041C218.943 511.464 219.608 511.743 220.388 511.878C221.168 512.013 221.889 511.974 222.549 511.76C223.198 511.556 223.786 511.182 224.314 510.639C224.831 510.094 225.275 509.388 225.647 508.522C226.019 507.657 226.308 506.628 226.514 505.438L226.703 504.345C226.907 503.164 226.981 502.099 226.923 501.148C226.864 500.207 226.678 499.387 226.366 498.689C226.051 498 225.619 497.444 225.069 497.021C224.518 496.598 223.853 496.319 223.073 496.184C222.293 496.049 221.572 496.088 220.912 496.302C220.251 496.515 219.662 496.894 219.145 497.439C218.626 497.994 218.181 498.704 217.809 499.57C217.435 500.447 217.146 501.475 216.942 502.655Z" fill="black"/>
<path d="M190.972 504.375L202.223 488.022L207.005 489.427L192.485 508.874L189.441 507.98L190.972 504.375ZM191.353 484.831L191.992 504.674L191.375 508.548L188.302 507.645L186.556 483.422L191.353 484.831ZM189.237 493.036L190.272 489.513L201.801 492.898L200.766 496.421L189.237 493.036Z" fill="black"/>
<path d="M174.816 478.563L179.378 480.491L177.926 483.847L173.392 481.931C172.26 481.452 171.198 481.303 170.206 481.483C169.21 481.673 168.306 482.179 167.495 483.001C166.675 483.819 165.968 484.928 165.376 486.329L164.944 487.351C164.49 488.426 164.206 489.419 164.092 490.332C163.968 491.241 164.009 492.067 164.215 492.81C164.421 493.553 164.787 494.2 165.312 494.75C165.833 495.309 166.511 495.765 167.346 496.118L172.038 498.101L170.609 501.483L165.917 499.5C164.516 498.908 163.336 498.127 162.378 497.157C161.406 496.192 160.68 495.088 160.199 493.844C159.718 492.6 159.507 491.267 159.565 489.844C159.61 488.427 159.949 486.97 160.581 485.473L161.001 484.48C161.629 482.993 162.438 481.735 163.427 480.705C164.407 479.672 165.51 478.894 166.737 478.372C167.951 477.856 169.249 477.607 170.632 477.626C172.001 477.651 173.396 477.963 174.816 478.563ZM168.076 500.413L176.931 479.457L181.249 481.282L172.393 502.237L168.076 500.413Z" fill="black"/>
<path d="M137.214 485.385L148.401 465.576L152.469 467.873L141.282 487.683L137.214 485.385Z" fill="black"/>
<path d="M105.132 463.935L118.504 445.53L122.297 448.285L120.728 465.996L129.692 453.658L133.484 456.413L120.112 474.818L116.319 472.063L117.885 454.331L108.912 466.681L105.132 463.935Z" fill="black"/>
<path d="M91.3363 437.117L97.4324 430.475C97.9821 430.4 98.6985 430.428 99.5814 430.56C100.457 430.699 101.445 431.033 102.544 431.561C103.643 432.089 104.802 432.913 106.023 434.033C107.105 435.026 107.929 436.107 108.495 437.277C109.054 438.455 109.339 439.685 109.35 440.967C109.353 442.243 109.069 443.538 108.499 444.852C107.922 446.175 107.041 447.48 105.858 448.77L104.897 449.817C103.713 451.107 102.495 452.103 101.243 452.805C99.9824 453.5 98.7244 453.908 97.4689 454.028C96.2133 454.149 94.9903 453.995 93.7997 453.566C92.6091 453.138 91.4882 452.442 90.4368 451.477C88.9786 450.138 87.9998 448.802 87.5002 447.467C86.9936 446.139 86.8786 444.832 87.1551 443.545C87.417 442.258 87.9834 441.025 88.8544 439.844L92.2043 442.919C91.7675 443.564 91.4743 444.207 91.3248 444.848C91.1753 445.488 91.214 446.132 91.4407 446.778C91.6598 447.417 92.1186 448.058 92.8169 448.698C93.3925 449.227 94.0159 449.58 94.687 449.757C95.3434 449.936 96.0329 449.939 96.7555 449.768C97.478 449.597 98.2262 449.252 99.0002 448.732C99.7741 448.212 100.566 447.511 101.376 446.629L102.359 445.558C103.162 444.683 103.789 443.83 104.24 443C104.684 442.178 104.952 441.385 105.044 440.621C105.122 439.859 105.021 439.137 104.741 438.456C104.462 437.775 103.996 437.135 103.343 436.536C102.798 436.036 102.303 435.666 101.858 435.428C101.405 435.182 101.008 435.022 100.665 434.948C100.308 434.875 100.012 434.843 99.7765 434.853L97.0507 437.823L100.205 440.718L97.9439 443.182L91.3363 437.117Z" fill="black"/>
<path d="M87.7984 418.9C87.2946 419.337 86.7234 419.529 86.0847 419.475C85.4392 419.415 84.8641 419.093 84.3593 418.51C83.8545 417.928 83.6213 417.317 83.6597 416.677C83.6912 416.029 83.9589 415.487 84.4627 415.051C84.9666 414.614 85.5412 414.426 86.1867 414.487C86.8254 414.54 87.3971 414.858 87.9019 415.441C88.4067 416.023 88.6433 416.638 88.6117 417.286C88.5734 417.926 88.3023 418.464 87.7984 418.9Z" fill="black"/>
<path d="M71.2367 397.786C70.6864 398.162 70.097 398.288 69.4685 398.162C68.8342 398.028 68.2995 397.643 67.8644 397.006C67.4293 396.37 67.2673 395.736 67.3783 395.105C67.4835 394.465 67.8112 393.957 68.3616 393.581C68.9119 393.205 69.5042 393.084 70.1385 393.218C70.767 393.343 71.2987 393.724 71.7338 394.361C72.1689 394.997 72.3339 395.635 72.2287 396.275C72.1177 396.906 71.787 397.41 71.2367 397.786Z" fill="black"/>
<path d="M57.1896 374.921C56.5999 375.232 56.0001 375.29 55.3901 375.093C54.7752 374.888 54.2879 374.444 53.9281 373.763C53.5684 373.081 53.4797 372.433 53.6619 371.818C53.8393 371.195 54.2229 370.727 54.8125 370.416C55.4021 370.105 56.0044 370.052 56.6193 370.258C57.2293 370.454 57.7142 370.893 58.0739 371.575C58.4336 372.257 58.5248 372.909 58.3474 373.533C58.1651 374.147 57.7792 374.61 57.1896 374.921Z" fill="black"/>
<path d="M33.0035 314.505L36.5396 313.576L39.4512 324.652L35.9151 325.582L33.0035 314.505ZM17.0633 328.97L39.0659 323.187L40.2576 327.72L18.255 333.504L17.0633 328.97Z" fill="black"/>
<path d="M20.3891 287.999L21.4563 287.845C23.1679 287.599 24.7375 287.611 26.1652 287.879C27.5929 288.147 28.847 288.635 29.9275 289.343C30.9976 290.052 31.8698 290.958 32.544 292.06C33.2167 293.153 33.6554 294.411 33.86 295.833C34.0631 297.246 33.9965 298.576 33.6603 299.824C33.3226 301.062 32.741 302.177 31.9154 303.169C31.0796 304.163 30.0152 304.995 28.7224 305.665C27.4281 306.324 25.9252 306.777 24.2136 307.023L23.1465 307.177C21.4246 307.424 19.855 307.413 18.4376 307.143C17.0098 306.875 15.7558 306.387 14.6753 305.68C13.5934 304.962 12.716 304.056 12.0433 302.964C11.3691 301.861 10.9304 300.604 10.7273 299.191C10.5228 297.768 10.5893 296.438 10.927 295.2C11.2633 293.952 11.85 292.836 12.6874 291.853C13.5232 290.859 14.5883 290.033 15.8826 289.373C17.1651 288.705 18.6673 288.247 20.3891 287.999ZM22.1301 292.532L21.032 292.69C19.8359 292.862 18.7998 293.121 17.9236 293.468C17.0474 293.815 16.3304 294.244 15.7725 294.756C15.2147 295.268 14.8248 295.85 14.603 296.503C14.3708 297.157 14.311 297.876 14.4237 298.66C14.5364 299.443 14.7962 300.116 15.2033 300.679C15.5986 301.232 16.136 301.676 16.8154 302.01C17.4934 302.333 18.3016 302.538 19.24 302.624C20.1785 302.71 21.2457 302.667 22.4418 302.495L23.5399 302.337C24.7256 302.167 25.7617 301.907 26.6482 301.559C27.5244 301.212 28.2466 300.782 28.8148 300.268C29.3726 299.757 29.7677 299.174 29.9998 298.52C30.232 297.865 30.2917 297.146 30.1791 296.363C30.0664 295.579 29.8065 294.906 29.3994 294.344C28.9923 293.781 28.4498 293.338 27.7719 293.015C27.0836 292.693 26.2703 292.489 25.3318 292.403C24.383 292.318 23.3158 292.361 22.1301 292.532Z" fill="black"/>
<path d="M12.4697 268.365L31.498 274.011L31.6404 278.993L8.65825 271.193L8.56768 268.023L12.4697 268.365ZM31.1745 262.687L12.5 269.427L8.62523 270.037L8.53377 266.836L31.0318 257.689L31.1745 262.687ZM22.7173 263.21L26.3877 263.106L26.7308 275.116L23.0604 275.221L22.7173 263.21Z" fill="black"/>
<path d="M32.0256 245.022L31.6017 249.957L27.9616 249.613L28.3827 244.71C28.4879 243.485 28.3016 242.429 27.8237 241.541C27.3355 240.652 26.5752 239.949 25.5427 239.432C24.5112 238.904 23.2378 238.575 21.7225 238.445L20.6172 238.35C19.4549 238.25 18.4219 238.287 17.5183 238.46C16.6156 238.623 15.8428 238.917 15.1999 239.343C14.5569 239.769 14.0551 240.316 13.6944 240.986C13.3233 241.654 13.099 242.44 13.0214 243.343L12.5855 248.418L8.92714 248.104L9.36304 243.029C9.49319 241.514 9.87165 240.15 10.4984 238.939C11.1157 237.717 11.9415 236.685 12.9756 235.843C14.0098 235.001 15.2125 234.388 16.5837 234.004C17.9454 233.609 19.4358 233.481 21.0549 233.62L22.129 233.712C23.7377 233.85 25.1844 234.231 26.4692 234.853C27.7548 235.466 28.8354 236.275 29.7109 237.28C30.5769 238.275 31.2145 239.433 31.6238 240.754C32.0236 242.064 32.1575 243.486 32.0256 245.022ZM9.16248 245.364L31.829 247.311L31.4279 251.981L8.76134 250.034L9.16248 245.364Z" fill="black"/>
<path d="M13.9176 211.37L36.2145 215.887L35.2867 220.466L12.9898 215.948L13.9176 211.37Z" fill="black"/>
<path d="M24.404 174.229L46.0406 181.26L44.5921 185.718L27.2638 189.698L41.7674 194.411L40.3189 198.869L18.6824 191.839L20.1309 187.381L37.4788 183.39L22.9604 178.673L24.404 174.229Z" fill="black"/>
<path d="M45.6463 152.821L53.8472 156.567C54.0885 157.066 54.283 157.756 54.4306 158.637C54.5687 159.513 54.5565 160.555 54.394 161.763C54.2315 162.972 53.8062 164.329 53.1182 165.836C52.5081 167.172 51.7341 168.29 50.7963 169.19C49.849 170.086 48.7672 170.737 47.5509 171.143C46.339 171.54 45.0197 171.671 43.5932 171.535C42.1572 171.394 40.6433 170.96 39.0514 170.233L37.7581 169.643C36.1662 168.916 34.8427 168.065 33.7875 167.091C32.7366 166.107 31.96 165.037 31.4578 163.88C30.9555 162.723 30.724 161.512 30.7633 160.247C30.8026 158.983 31.1187 157.701 31.7115 156.403C32.5337 154.603 33.5025 153.259 34.6179 152.371C35.7238 151.479 36.9316 150.966 38.2414 150.831C39.546 150.683 40.894 150.84 42.2855 151.304L40.3967 155.44C39.6479 155.224 38.9458 155.144 38.2906 155.199C37.6353 155.255 37.0353 155.491 36.4906 155.906C35.9502 156.312 35.4831 156.946 35.0893 157.808C34.7648 158.519 34.6217 159.221 34.6601 159.914C34.6934 160.594 34.903 161.25 35.289 161.885C35.6749 162.519 36.2347 163.124 36.9681 163.699C37.7016 164.275 38.6132 164.811 39.7029 165.309L41.0247 165.913C42.1049 166.406 43.1095 166.739 44.0385 166.911C44.958 167.079 45.7951 167.089 46.5497 166.941C47.2992 166.78 47.9545 166.461 48.5157 165.984C49.0769 165.508 49.5414 164.867 49.9092 164.061C50.2164 163.388 50.4149 162.803 50.5046 162.306C50.5986 161.799 50.6278 161.372 50.5922 161.023C50.5515 160.661 50.4899 160.37 50.4075 160.149L46.7406 158.474L44.9621 162.369L41.9205 160.98L45.6463 152.821Z" fill="black"/>
<path d="M61.8784 143.827C61.3075 143.483 60.9486 142.999 60.8017 142.375C60.6602 141.743 60.7884 141.096 61.1865 140.436C61.5846 139.776 62.0937 139.365 62.714 139.204C63.3396 139.034 63.9379 139.121 64.5088 139.465C65.0797 139.81 65.4359 140.298 65.5774 140.931C65.7243 141.555 65.5987 142.197 65.2006 142.857C64.8026 143.517 64.2907 143.932 63.6651 144.102C63.0448 144.263 62.4493 144.172 61.8784 143.827Z" fill="black"/>
<path d="M76.8414 121.551C76.3135 121.144 76.0121 120.623 75.9373 119.986C75.8688 119.341 76.07 118.714 76.5407 118.103C77.0114 117.493 77.564 117.143 78.1986 117.054C78.8395 116.956 79.424 117.111 79.9519 117.518C80.4799 117.925 80.7781 118.451 80.8465 119.095C80.9213 119.732 80.7234 120.355 80.2527 120.966C79.782 121.576 79.2262 121.93 78.5852 122.028C77.9506 122.117 77.3694 121.958 76.8414 121.551Z" fill="black"/>
<path d="M94.2459 101.126C93.7679 100.662 93.5279 100.109 93.5261 99.468C93.5316 98.8197 93.803 98.2192 94.3402 97.6664C94.8774 97.1136 95.4663 96.8289 96.107 96.8124C96.7549 96.7884 97.3179 97.0087 97.796 97.4734C98.2741 97.938 98.5104 98.4945 98.5049 99.1428C98.5067 99.7836 98.239 100.38 97.7017 100.933C97.1645 101.486 96.5719 101.774 95.924 101.798C95.2834 101.815 94.724 101.591 94.2459 101.126Z" fill="black"/>
<path d="M144.232 59.4543L146.208 62.5302L136.573 68.7222L134.597 65.6464L144.232 59.4543ZM125.549 48.7643L137.848 67.9028L133.905 70.437L121.605 51.2985L125.549 48.7643Z" fill="black"/>
<path d="M165.542 39.2665L166.018 40.234C166.781 41.7857 167.255 43.282 167.441 44.7227C167.627 46.1635 167.551 47.507 167.212 48.7532C166.868 49.9901 166.276 51.0995 165.435 52.0815C164.604 53.0589 163.544 53.8648 162.254 54.499C160.973 55.1287 159.687 55.4764 158.396 55.5424C157.115 55.6037 155.875 55.395 154.676 54.9165C153.473 54.4286 152.353 53.6734 151.316 52.6509C150.289 51.6238 149.394 50.3344 148.631 48.7827L148.155 47.8151C147.388 46.254 146.913 44.7578 146.732 43.3264C146.546 41.8857 146.622 40.5422 146.961 39.2959C147.31 38.0451 147.899 36.931 148.731 35.9536C149.571 34.9716 150.632 34.1658 151.912 33.5361C153.202 32.9019 154.488 32.5541 155.769 32.4928C157.06 32.4269 158.303 32.6401 159.497 33.1326C160.7 33.6205 161.815 34.378 162.843 35.4051C163.875 36.4183 164.775 37.7054 165.542 39.2665ZM161.769 42.3229L161.28 41.3273C160.747 40.243 160.18 39.3378 159.579 38.6117C158.978 37.8856 158.348 37.3363 157.689 36.9639C157.03 36.5914 156.356 36.4006 155.667 36.3913C154.973 36.3727 154.27 36.538 153.56 36.8873C152.849 37.2366 152.29 37.6918 151.881 38.2527C151.476 38.7997 151.22 39.4479 151.113 40.1972C151.015 40.9419 151.07 41.7738 151.278 42.693C151.486 43.6121 151.857 44.6138 152.39 45.6982L152.879 46.6937C153.408 47.7688 153.975 48.674 154.58 49.4094C155.181 50.1355 155.813 50.6895 156.477 51.0713C157.136 51.4437 157.812 51.6392 158.506 51.6578C159.2 51.6765 159.903 51.5111 160.613 51.1618C161.323 50.8125 161.883 50.3574 162.292 49.7964C162.701 49.2355 162.955 48.5826 163.053 47.8379C163.147 47.0839 163.089 46.2473 162.881 45.3281C162.668 44.3997 162.298 43.3979 161.769 42.3229Z" fill="black"/>
<path d="M181.768 25.6673L182.278 45.5092L177.584 47.1842L177.9 22.9166L180.888 21.8507L181.768 25.6673ZM192.948 41.7024L180.768 26.0243L178.989 22.528L182.006 21.4516L197.657 40.0221L192.948 41.7024ZM189.837 33.8207L191.071 37.279L179.754 41.3168L178.52 37.8585L189.837 33.8207Z" fill="black"/>
<path d="M210.011 37.0528L205.187 38.1747L204.389 34.6064L209.183 33.4916C210.38 33.2132 211.327 32.7096 212.024 31.9807C212.718 31.2418 213.152 30.3014 213.325 29.1596C213.508 28.0155 213.428 26.7028 213.083 25.2215L212.832 24.1409C212.568 23.0046 212.213 22.0335 211.769 21.2277C211.335 20.4196 210.817 19.7755 210.213 19.2956C209.61 18.8157 208.934 18.5076 208.186 18.3715C207.435 18.2252 206.618 18.2546 205.736 18.4599L200.774 19.6136L199.943 16.0372L204.904 14.8835C206.385 14.539 207.799 14.4777 209.144 14.6995C210.498 14.9088 211.735 15.3752 212.855 16.0986C213.975 16.8221 214.929 17.7765 215.718 18.9619C216.515 20.1349 217.097 21.5127 217.465 23.0955L217.71 24.1456C218.075 25.7182 218.161 27.2117 217.965 28.626C217.78 30.0379 217.345 31.3156 216.659 32.459C215.981 33.5899 215.077 34.5541 213.947 35.3516C212.825 36.1366 211.513 36.7037 210.011 37.0528ZM202.621 15.4143L207.774 37.5731L203.208 38.6348L198.055 16.476L202.621 15.4143Z" fill="black"/>
<path d="M236.421 9.43174L239.015 32.0335L234.373 32.566L231.78 9.9643L236.421 9.43174Z" fill="black"/>
<path d="M275.25 9.25V32H270.562L261.422 16.75V32H256.734V9.25L261.422 9.25L270.578 24.5156V9.25L275.25 9.25Z" fill="black"/>
<path d="M301.909 21.5152L300.881 30.4721C300.48 30.856 299.884 31.2542 299.092 31.6666C298.302 32.0687 297.307 32.3792 296.107 32.5981C294.908 32.8169 293.485 32.832 291.84 32.6432C290.381 32.4757 289.078 32.0851 287.933 31.4714C286.788 30.8472 285.834 30.0196 285.072 28.9885C284.32 27.9585 283.788 26.7442 283.477 25.3454C283.167 23.9363 283.111 22.3624 283.311 20.6238L283.473 19.2112C283.672 17.4726 284.072 15.951 284.673 14.6464C285.284 13.3429 286.062 12.2736 287.007 11.4384C287.952 10.6032 289.032 10.0089 290.247 9.65548C291.462 9.30208 292.778 9.20672 294.196 9.36939C296.162 9.595 297.74 10.101 298.929 10.8875C300.119 11.6637 300.98 12.6537 301.513 13.8578C302.058 15.0526 302.324 16.3833 302.313 17.85L297.796 17.3317C297.77 16.5528 297.629 15.8604 297.374 15.2544C297.118 14.6484 296.709 14.1506 296.146 13.7609C295.592 13.3724 294.845 13.1241 293.903 13.0161C293.127 12.927 292.415 13.0079 291.768 13.2586C291.132 13.5002 290.572 13.9025 290.088 14.4656C289.604 15.0287 289.202 15.7479 288.881 16.6233C288.561 17.4988 288.332 18.5315 288.195 19.7216L288.03 21.1653C287.894 22.345 287.888 23.4033 288.012 24.3401C288.136 25.2666 288.385 26.0658 288.759 26.7378C289.144 27.4006 289.65 27.9253 290.277 28.3117C290.903 28.6982 291.657 28.9419 292.536 29.0428C293.271 29.1271 293.889 29.1351 294.389 29.0667C294.9 28.9995 295.316 28.8952 295.636 28.7537C295.968 28.603 296.226 28.4544 296.411 28.3078L296.87 24.3029L292.617 23.8148L292.998 20.4929L301.909 21.5152Z" fill="black"/>
<path d="M315.478 34.1736C315.629 33.5243 315.979 33.0334 316.527 32.7009C317.085 32.3708 317.739 32.293 318.49 32.4676C319.241 32.6422 319.789 32.9995 320.134 33.5396C320.489 34.0821 320.591 34.678 320.44 35.3273C320.289 35.9767 319.934 36.4664 319.376 36.7965C318.828 37.129 318.179 37.2079 317.428 37.0333C316.677 36.8587 316.124 36.5002 315.769 35.9577C315.424 35.4177 315.327 34.8229 315.478 34.1736Z" fill="black"/>
<path d="M341.288 41.5206C341.512 40.8927 341.915 40.4448 342.497 40.177C343.089 39.9126 343.748 39.91 344.474 40.169C345.2 40.4281 345.704 40.8455 345.985 41.4214C346.276 42.0008 346.31 42.6045 346.085 43.2324C345.861 43.8603 345.453 44.3064 344.861 44.5707C344.279 44.8386 343.625 44.843 342.899 44.5839C342.173 44.3249 341.665 43.9057 341.374 43.3263C341.092 42.7504 341.064 42.1485 341.288 41.5206Z" fill="black"/>
<path d="M366.092 51.7618C366.386 51.1635 366.837 50.7645 367.446 50.5648C368.065 50.3696 368.72 50.4421 369.411 50.7822C370.103 51.1223 370.556 51.5945 370.77 52.1987C370.993 52.8075 370.957 53.411 370.663 54.0092C370.369 54.6075 369.913 55.0042 369.294 55.1993C368.685 55.3991 368.035 55.3289 367.343 54.9888C366.651 54.6487 366.194 54.1742 365.971 53.5654C365.757 52.9613 365.798 52.36 366.092 51.7618Z" fill="black"/>
<path d="M421.17 86.4234L418.856 89.2539L409.99 82.0039L412.304 79.1735L421.17 86.4234ZM425.564 65.3516L411.163 82.9633L407.534 79.9961L421.935 62.3843L425.564 65.3516Z" fill="black"/>
<path d="M446.956 100.453L446.182 101.204C444.942 102.409 443.666 103.323 442.353 103.945C441.04 104.567 439.739 104.909 438.449 104.972C437.167 105.027 435.928 104.807 434.735 104.311C433.548 103.823 432.454 103.063 431.452 102.032C430.458 101.009 429.73 99.8936 429.268 98.6863C428.814 97.4864 428.629 96.2426 428.714 94.9546C428.806 93.6595 429.178 92.3609 429.83 91.059C430.49 89.7646 431.439 88.5148 432.679 87.3097L433.452 86.5583C434.7 85.3459 435.976 84.4323 437.282 83.8174C438.594 83.1953 439.896 82.8529 441.186 82.7903C442.483 82.7351 443.725 82.9518 444.911 83.4402C446.105 83.936 447.199 84.6957 448.194 85.7191C449.195 86.7499 449.924 87.8653 450.378 89.0652C450.839 90.2725 451.021 91.52 450.921 92.8077C450.829 94.1029 450.453 95.3977 449.794 96.6921C449.149 97.9868 448.203 99.2403 446.956 100.453ZM442.883 97.8089L443.678 97.0357C444.545 96.1936 445.231 95.3747 445.736 94.5789C446.241 93.7832 446.568 93.0144 446.719 92.2726C446.869 91.5307 446.843 90.8305 446.638 90.172C446.442 89.5062 446.067 88.8894 445.516 88.3217C444.964 87.754 444.358 87.3623 443.698 87.1466C443.053 86.9311 442.357 86.888 441.612 87.0173C440.873 87.1541 440.099 87.4635 439.289 87.9455C438.479 88.4275 437.641 89.0895 436.774 89.9317L435.979 90.7048C435.12 91.5397 434.434 92.3586 433.922 93.1616C433.417 93.9574 433.085 94.7298 432.927 95.4789C432.777 96.2208 432.8 96.9246 432.997 97.5904C433.193 98.2562 433.568 98.8729 434.119 99.4407C434.671 100.008 435.277 100.4 435.937 100.616C436.597 100.831 437.296 100.871 438.034 100.734C438.781 100.59 439.558 100.277 440.368 99.7951C441.186 99.3058 442.024 98.6438 442.883 97.8089Z" fill="black"/>
<path d="M464.903 111.682L446.19 118.299L443.147 114.352L466.324 107.154L468.261 109.665L464.903 111.682ZM453.108 127.27L464.255 110.841L467.03 108.069L468.986 110.606L456.161 131.229L453.108 127.27ZM459.642 121.876L456.735 124.118L449.397 114.603L452.305 112.36L459.642 121.876Z" fill="black"/>
<path d="M462.803 142.061L460.245 137.82L463.392 135.958L465.934 140.173C466.568 141.226 467.34 141.971 468.248 142.408C469.166 142.84 470.194 142.962 471.334 142.774C472.478 142.594 473.702 142.112 475.004 141.327L475.954 140.754C476.953 140.151 477.767 139.514 478.397 138.843C479.031 138.181 479.483 137.488 479.753 136.766C480.023 136.044 480.107 135.306 480.006 134.552C479.913 133.793 479.632 133.025 479.164 132.249L476.534 127.887L479.678 125.991L482.309 130.353C483.094 131.656 483.589 132.981 483.794 134.329C484.013 135.681 483.952 137.001 483.61 138.29C483.268 139.579 482.655 140.782 481.772 141.898C480.902 143.019 479.772 143.998 478.38 144.838L477.457 145.394C476.074 146.228 474.68 146.771 473.275 147.022C471.875 147.282 470.525 147.263 469.226 146.964C467.941 146.669 466.744 146.107 465.637 145.278C464.543 144.454 463.599 143.381 462.803 142.061ZM481.098 128.346L461.616 140.094L459.196 136.08L478.678 124.332L481.098 128.346Z" fill="black"/>
<path d="M497.233 158.643L476.539 168.094L474.598 163.844L495.292 154.394L497.233 158.643Z" fill="black"/>
<path d="M510.58 194.854L488.943 201.884L487.494 197.426L499.173 184.02L484.67 188.733L483.221 184.275L504.858 177.245L506.306 181.703L494.617 195.128L509.136 190.411L510.58 194.854Z" fill="black"/>
<path d="M505.978 224.659L497.142 226.45C496.653 226.187 496.09 225.744 495.453 225.118C494.826 224.49 494.223 223.64 493.645 222.567C493.066 221.494 492.612 220.146 492.283 218.522C491.991 217.083 491.96 215.723 492.19 214.444C492.43 213.163 492.922 212 493.667 210.956C494.414 209.923 495.405 209.042 496.639 208.313C497.883 207.583 499.363 207.044 501.078 206.696L502.472 206.414C504.187 206.067 505.758 205.977 507.184 206.145C508.613 206.323 509.87 206.732 510.956 207.373C512.043 208.014 512.942 208.857 513.653 209.904C514.365 210.95 514.862 212.172 515.146 213.571C515.539 215.511 515.545 217.167 515.164 218.541C514.794 219.913 514.119 221.038 513.138 221.917C512.17 222.804 510.987 223.469 509.589 223.912L508.686 219.455C509.418 219.19 510.033 218.842 510.531 218.412C511.028 217.982 511.375 217.438 511.572 216.782C511.77 216.136 511.775 215.349 511.587 214.42C511.432 213.654 511.135 213.002 510.697 212.464C510.27 211.934 509.715 211.525 509.029 211.239C508.344 210.953 507.536 210.792 506.604 210.758C505.673 210.724 504.62 210.825 503.446 211.063L502.022 211.352C500.858 211.588 499.849 211.909 498.997 212.316C498.154 212.72 497.471 213.204 496.947 213.767C496.436 214.338 496.093 214.982 495.919 215.697C495.745 216.413 495.746 217.204 495.922 218.072C496.069 218.797 496.252 219.387 496.472 219.842C496.694 220.307 496.922 220.67 497.155 220.931C497.401 221.2 497.622 221.4 497.819 221.53L501.77 220.729L500.919 216.533L504.196 215.869L505.978 224.659Z" fill="black"/>
<path d="M498.132 241.477C498.796 241.42 499.371 241.6 499.857 242.019C500.343 242.447 500.619 243.046 500.685 243.814C500.751 244.582 500.581 245.213 500.174 245.708C499.767 246.214 499.232 246.495 498.568 246.552C497.904 246.609 497.328 246.423 496.842 245.994C496.357 245.576 496.081 244.983 496.015 244.215C495.949 243.447 496.119 242.81 496.525 242.305C496.932 241.81 497.468 241.534 498.132 241.477Z" fill="black"/>
<path d="M499.12 268.293C499.787 268.312 500.337 268.557 500.772 269.028C501.206 269.51 501.412 270.136 501.39 270.906C501.368 271.677 501.127 272.285 500.666 272.73C500.205 273.186 499.641 273.404 498.975 273.385C498.308 273.366 497.758 273.116 497.324 272.634C496.889 272.164 496.683 271.543 496.705 270.772C496.727 270.002 496.968 269.389 497.429 268.933C497.89 268.488 498.454 268.274 499.12 268.293Z" fill="black"/>
<path d="M497.045 295.048C497.705 295.143 498.224 295.449 498.602 295.966C498.979 296.494 499.112 297.139 499.003 297.902C498.893 298.665 498.584 299.242 498.075 299.632C497.565 300.032 496.98 300.185 496.32 300.09C495.66 299.995 495.142 299.684 494.765 299.156C494.387 298.639 494.253 297.998 494.363 297.235C494.472 296.472 494.782 295.891 495.292 295.491C495.801 295.101 496.385 294.953 497.045 295.048Z" fill="black"/>
<path d="M481.1 358.142L477.693 356.815L481.848 346.143L485.255 347.469L481.1 358.142ZM502.498 355.809L481.298 347.555L482.999 343.187L504.199 351.441L502.498 355.809Z" fill="black"/>
<path d="M475.726 387L474.772 386.497C473.243 385.69 471.979 384.759 470.982 383.702C469.985 382.646 469.257 381.514 468.799 380.307C468.35 379.104 468.177 377.858 468.279 376.57C468.377 375.291 468.762 374.015 469.432 372.744C470.098 371.482 470.934 370.445 471.94 369.633C472.941 368.83 474.066 368.27 475.317 367.952C476.578 367.64 477.928 367.592 479.367 367.81C480.802 368.037 482.284 368.554 483.814 369.361L484.767 369.864C486.306 370.676 487.569 371.608 488.557 372.659C489.555 373.715 490.282 374.847 490.741 376.055C491.194 377.272 491.372 378.52 491.274 379.799C491.171 381.087 490.787 382.363 490.121 383.625C489.45 384.896 488.614 385.933 487.613 386.736C486.608 387.548 485.477 388.106 484.222 388.409C482.962 388.722 481.614 388.765 480.179 388.538C478.749 388.324 477.264 387.812 475.726 387ZM476.981 382.31L477.963 382.828C479.031 383.392 480.022 383.791 480.935 384.025C481.848 384.259 482.68 384.333 483.432 384.247C484.184 384.161 484.842 383.919 485.405 383.522C485.977 383.129 486.448 382.582 486.818 381.882C487.187 381.182 487.373 380.485 487.374 379.79C487.379 379.11 487.205 378.435 486.852 377.766C486.494 377.106 485.96 376.465 485.252 375.844C484.543 375.223 483.654 374.63 482.585 374.066L481.604 373.549C480.545 372.989 479.554 372.59 478.632 372.351C477.719 372.117 476.882 372.04 476.121 372.122C475.369 372.208 474.707 372.447 474.134 372.84C473.562 373.233 473.091 373.779 472.721 374.479C472.352 375.18 472.167 375.877 472.165 376.571C472.164 377.265 472.343 377.943 472.701 378.603C473.069 379.268 473.607 379.911 474.315 380.532C475.033 381.158 475.922 381.751 476.981 382.31Z" fill="black"/>
<path d="M470.592 407.54L458.516 391.787L461.33 387.673L475.338 407.492L473.548 410.11L470.592 407.54ZM452.122 401.138L471.191 406.663L474.685 408.446L472.877 411.09L449.3 405.266L452.122 401.138ZM459.272 405.686L456.241 403.614L463.023 393.695L466.054 395.768L459.272 405.686Z" fill="black"/>
<path d="M441.051 414.929L444.294 411.186L447.037 413.604L443.814 417.324C443.009 418.253 442.539 419.217 442.403 420.216C442.276 421.222 442.478 422.238 443.009 423.263C443.533 424.296 444.37 425.311 445.52 426.307L446.358 427.033C447.24 427.797 448.097 428.375 448.93 428.766C449.756 429.164 450.554 429.381 451.325 429.414C452.095 429.448 452.823 429.3 453.508 428.97C454.201 428.647 454.845 428.143 455.438 427.458L458.774 423.609L461.549 426.013L458.213 429.863C457.217 431.012 456.11 431.893 454.891 432.504C453.673 433.13 452.398 433.48 451.067 433.553C449.735 433.626 448.402 433.415 447.067 432.92C445.733 432.439 444.452 431.667 443.224 430.603L442.409 429.897C441.189 428.839 440.242 427.681 439.569 426.422C438.888 425.171 438.49 423.882 438.373 422.553C438.256 421.24 438.421 419.928 438.867 418.619C439.313 417.324 440.041 416.095 441.051 414.929ZM459.748 428.092L442.555 413.194L445.624 409.651L462.818 424.549L459.748 428.092Z" fill="black"/>
<path d="M435.92 452.799L420.537 436.038L423.979 432.879L439.362 449.64L435.92 452.799Z" fill="black"/>
<path d="M405.605 476.682L392.233 458.277L396.026 455.522L412.384 462.486L403.421 450.149L407.213 447.394L420.585 465.799L416.793 468.554L400.412 461.586L409.385 473.936L405.605 476.682Z" fill="black"/>
<path d="M375.837 481.515L371.404 473.665C371.502 473.119 371.75 472.447 372.148 471.648C372.552 470.858 373.174 470.022 374.016 469.139C374.857 468.257 375.999 467.409 377.442 466.595C378.721 465.872 380.004 465.423 381.292 465.246C382.585 465.078 383.842 465.187 385.065 465.573C386.279 465.964 387.423 466.634 388.497 467.583C389.576 468.541 390.546 469.781 391.407 471.305L392.106 472.543C392.966 474.067 393.537 475.533 393.818 476.942C394.09 478.355 394.089 479.678 393.816 480.909C393.542 482.14 393.017 483.256 392.242 484.256C391.467 485.256 390.458 486.107 389.216 486.808C387.492 487.782 385.919 488.299 384.494 488.362C383.075 488.434 381.796 488.139 380.658 487.478C379.515 486.832 378.517 485.912 377.664 484.719L381.623 482.483C382.102 483.098 382.623 483.575 383.185 483.915C383.748 484.255 384.372 484.417 385.057 484.401C385.733 484.391 386.484 484.152 387.309 483.686C387.989 483.302 388.518 482.818 388.894 482.235C389.266 481.666 389.483 481.011 389.543 480.271C389.604 479.531 389.507 478.713 389.252 477.816C388.996 476.919 388.574 475.949 387.985 474.906L387.271 473.641C386.687 472.607 386.07 471.747 385.419 471.062C384.774 470.385 384.103 469.885 383.406 469.561C382.704 469.251 381.986 469.124 381.252 469.18C380.518 469.236 379.766 469.481 378.995 469.917C378.351 470.28 377.846 470.637 377.481 470.987C377.107 471.341 376.833 471.67 376.657 471.973C376.477 472.29 376.355 472.562 376.292 472.789L378.274 476.299L382.002 474.194L383.646 477.105L375.837 481.515Z" fill="black"/>
<path d="M357.418 479.251C357.678 479.865 357.684 480.467 357.436 481.058C357.178 481.654 356.695 482.101 355.985 482.401C355.274 482.701 354.621 482.734 354.025 482.5C353.419 482.27 352.986 481.848 352.726 481.234C352.467 480.62 352.466 480.015 352.723 479.42C352.971 478.829 353.45 478.383 354.16 478.083C354.87 477.783 355.528 477.748 356.134 477.978C356.731 478.213 357.159 478.637 357.418 479.251Z" fill="black"/>
<path d="M332.219 488.477C332.407 489.117 332.344 489.716 332.031 490.275C331.707 490.837 331.176 491.227 330.436 491.444C329.696 491.661 329.044 491.619 328.478 491.319C327.902 491.021 327.52 490.552 327.332 489.913C327.144 489.273 327.212 488.672 327.536 488.11C327.849 487.551 328.376 487.163 329.115 486.946C329.855 486.729 330.513 486.769 331.089 487.067C331.655 487.368 332.032 487.838 332.219 488.477Z" fill="black"/>
<path d="M306.133 494.771C306.247 495.428 306.116 496.017 305.741 496.536C305.355 497.057 304.783 497.384 304.023 497.515C303.264 497.647 302.62 497.531 302.092 497.168C301.554 496.806 301.228 496.297 301.114 495.64C301 494.983 301.136 494.394 301.522 493.873C301.897 493.353 302.464 493.028 303.224 492.896C303.983 492.765 304.632 492.88 305.171 493.241C305.699 493.605 306.019 494.115 306.133 494.771Z" fill="black"/>
</svg>
